<svg width="18" height="18" xmlns="http://www.w3.org/2000/svg">
  <!-- Thin white stroke around entire lamp -->
  <path d="m9 1c-1 0-2 1.5-3 4h-1v1h1l1 4 1 1v1h-2v1h2v4h2v-4h2v-1h-2v-1l1-1 1-4h1v-1h-1c-1-2.5-2-4-3-4zm-2 5h4l-1 4h-2z" fill="none" stroke="#ffffff" stroke-linejoin="round" stroke-width="0.5"></path>

  <!-- Base lamp body (black) -->
  <path d="m9 1c-1 0-2 1.5-3 4h-1v1h1l1 4 1 1v1h-2v1h2v4h2v-4h2v-1h-2v-1l1-1 1-4h1v-1h-1c-1-2.5-2-4-3-4zm-2 5h4l-1 4h-2z" fill="black"></path>

  <!-- Yellow center light (enclosed area) -->
  <path d="M7 6h4l-1 4h-2z" fill="yellow"></path>
</svg>
